<svg width="100" height="100" viewBox="0 0 100 100" fill="none" xmlns="http://www.w3.org/2000/svg">
<ellipse cx="75.0208" cy="41.6639" rx="12.5052" ry="12.5052" stroke="#0E0E0E" stroke-width="3" stroke-linecap="round" stroke-linejoin="round"/>
<ellipse cx="47.9253" cy="72.9275" rx="14.5894" ry="14.5894" stroke="#0E0E0E" stroke-width="3" stroke-linecap="round" stroke-linejoin="round"/>
<ellipse cx="29.158" cy="29.16" rx="16.6736" ry="16.6736" stroke="#0E0E0E" stroke-width="3" stroke-linecap="round" stroke-linejoin="round"/>
<path d="M83.352 72.9295C83.3505 74.0797 82.4173 75.0112 81.2669 75.0107C80.1165 75.0102 79.1841 74.0779 79.1836 72.9277C79.1831 71.7775 80.1148 70.8443 81.2652 70.8429C81.8188 70.8422 82.3501 71.0618 82.7416 71.4533C83.1331 71.8447 83.3527 72.3759 83.352 72.9295" stroke="#0E0E0E" stroke-width="3" stroke-linecap="round" stroke-linejoin="round"/>
<path d="M62.5043 14.5729C62.5029 15.7231 61.5697 16.6547 60.4193 16.6542C59.2689 16.6537 58.3364 15.7214 58.3359 14.5711C58.3355 13.4209 59.2671 12.4878 60.4175 12.4863C60.9712 12.4856 61.5024 12.7052 61.8939 13.0967C62.2854 13.4882 62.505 14.0193 62.5043 14.5729" stroke="#0E0E0E" stroke-width="3" stroke-linecap="round" stroke-linejoin="round"/>
<path d="M18.7543 62.5076C18.7529 63.6578 17.8197 64.5894 16.6693 64.5889C15.5189 64.5884 14.5864 63.6561 14.5859 62.5058C14.5855 61.3556 15.5171 60.4225 16.6675 60.421C17.2212 60.4203 17.7524 60.6399 18.1439 61.0314C18.5354 61.4228 18.7551 61.954 18.7544 62.5076" stroke="#0E0E0E" stroke-width="3" stroke-linecap="round" stroke-linejoin="round"/>
</svg>
