<svg width="200" height="82" viewBox="0 0 200 82" fill="none" xmlns="http://www.w3.org/2000/svg">
<path fill-rule="evenodd" clip-rule="evenodd" d="M16.4993 31.0746C23.2127 30.1788 34.9987 38.7118 34.3904 50.732C33.7822 62.7543 27.9143 69.5758 16.9055 69.5758C5.89672 69.5758 0 61.1614 0 50.3354C0 43.0585 3.0574 40.0759 9.05675 36.6763C11.9848 35.0161 9.78475 31.9705 16.4993 31.0746ZM11.8052 50.4316C14.992 52.1955 18.5871 52.1955 22.5895 50.4316V63.5561C18.9954 67.2453 15.3993 67.736 11.8052 63.5561V50.4316ZM175.586 66.3912V62.6036H171.945V68.991H162.827V51.413C155.294 50.8934 169.749 42.447 171.945 51.1232V58.5103H175.586V47.0909H184.532L184.501 65.9518C184.501 66.2607 184.817 66.5654 185.182 66.6884C192.966 69.2979 174.806 70.8554 175.586 66.3912ZM133.441 68.991H124.446C124.354 63.6876 124.54 56.71 124.446 51.4044C123.85 50.4465 121.727 50.4776 121.132 51.4963V65.7551C121.132 69.3588 116.744 69.1664 114.137 69.1664C103.338 69.1664 112.074 65.9807 112.078 65.5669C112.107 60.8707 112.047 55.4357 112.078 50.7405C112.022 47.5997 113.119 45.3409 123.415 47.6713C128.063 45.2372 137.899 47.7023 133.544 49.4417L133.441 68.991ZM158.874 47.0032L150.076 47.0909C149.984 52.3965 150.17 58.8128 150.076 64.1184C149.48 65.0762 147.484 65.1372 146.888 64.1184L146.848 49.7677C146.84 46.164 142.783 46.582 140.189 46.8172C132.266 47.5398 138.214 50.8068 138.218 51.4375C138.237 56.1359 138.203 60.0839 138.235 64.7812C138.178 67.922 139.173 70.1809 149.468 67.8504C154.119 70.2846 164.656 68.99 158.875 66.0801L158.874 47.0032ZM107.87 76.8965C107.87 85.9309 91.6932 79.1415 99.0726 76.8965C99.6478 76.7212 99.0726 68.4362 99.0726 67.7723C95.1141 69.0873 86.9499 71.0863 86.9425 62.9264L86.9318 50.6497C81.7887 48.1332 93.2347 43.8517 95.7865 49.4427V63.2001C95.7865 64.0671 99.0726 64.1419 99.0726 63.0162V47.0919H107.87V76.8965ZM83.4254 78.3451C82.7209 85.1826 66.5797 79.5082 74.142 77.0526C74.1527 77.0505 74.142 70.0515 74.142 68.991C66.8342 70.4524 62.511 65.8064 61.1908 59.2051C59.3735 50.1162 67.8925 44.429 76.357 47.9472C77.9381 46.6333 83.512 45.7107 83.8017 48.951L83.4254 49.7356C83.4264 50.5086 83.435 78.2467 83.4254 78.3451ZM71.9494 51.1179C68.6536 51.3349 68.6312 64.2638 71.8404 64.2638C75.3981 64.2638 74.9673 50.918 71.9494 51.1179ZM58.8945 69.0327L49.5149 68.9868V61.3507H46.3549V68.9868H36.8738V51.0612C34.291 49.9837 34.12 48.9296 36.7027 47.852C40.1685 46.2378 43.4322 47.0289 46.3549 48.9499V57.283H49.5149V47.0898H58.7812V64.9255C61.6366 66.636 62.5645 68.1369 58.8945 69.0327ZM43.321 0H93.4314L62.3624 27.8611C51.5707 36.7384 45.567 37.9891 35.669 29.3107C27.6406 23.694 23.6211 23.9346 13.5894 25.5606L43.321 0ZM95.1376 0H146.884L115.816 27.8611C105.023 36.7384 99.0203 37.9891 89.1211 29.3107C81.0928 23.694 76.5633 23.9346 66.5305 25.5606L95.1376 0ZM148.255 0H200L168.932 27.8611C158.139 36.7384 152.137 37.9891 142.238 29.3107C134.209 23.694 129.679 23.9346 119.646 25.5606L148.255 0Z" fill="#CC2229"/>
</svg>
