<svg width="90" height="36" viewBox="0 0 90 36" fill="none" xmlns="http://www.w3.org/2000/svg">
<g clip-path="url(#clip0_1941_4728)">
<path d="M1.78125 7.625V33.0916H11.5236V22.2619L1.78125 7.625Z" fill="#0E0E0E"/>
<path d="M6.22377 10.492H18.012C19.6488 10.492 20.9737 11.8014 20.9737 13.4147C20.9737 15.028 19.6488 16.3374 18.012 16.3374H10.1129L21.266 33.0943H30.0302L22.7975 22.4595C26.145 20.9163 28.4714 17.5338 28.4714 13.6096C28.4714 8.22787 24.1108 3.86719 18.7291 3.86719H1.78125V4.1088L6.22377 10.492Z" fill="#0E0E0E"/>
<path d="M75.2578 26.798L79.5406 33.0955H88.8932L79.9341 19.9199L75.2578 26.798Z" fill="#0E0E0E"/>
<path d="M62.8002 27.9277L59.2852 33.0951H66.3698L62.8002 27.9277Z" fill="#0E0E0E"/>
<path d="M63.9766 26.2016L68.688 33.0173L69.0036 32.5536L68.9958 32.5458L88.5 3.86816H79.1552L78.785 4.40984L78.7928 4.41763L63.9766 26.2016Z" fill="#0E0E0E"/>
<path d="M72.9137 9.59278L69.0206 3.86816H59.668L68.2374 16.4709L72.9137 9.59278Z" fill="#0E0E0E"/>
<path d="M45.6347 26.0799C41.3363 26.0799 37.8408 22.5844 37.8408 18.286C37.8408 13.9877 41.3363 10.4921 45.6347 10.4921C49.933 10.4921 53.4286 13.9877 53.4286 18.286C53.4286 20.6164 52.3959 22.5727 50.7708 24.1315H60.0846C60.8172 22.183 61.2225 20.3553 61.2225 18.286C61.2225 9.67768 54.243 2.69824 45.6347 2.69824C37.0263 2.69824 30.0469 9.67768 30.0469 18.286C30.0469 26.8944 37.0263 33.8738 45.6347 33.8738C51.4022 33.8738 56.437 30.7563 59.1337 26.0799H45.6347Z" fill="#0E0E0E"/>
<path d="M45.4318 10.4921C41.1451 10.4921 37.7353 13.9877 37.7353 18.286C37.7353 22.5844 41.3283 26.0799 45.6266 26.0799H61.6041L67.0598 33.8738H45.6266C37.0183 33.8738 29.9414 26.8944 29.9414 18.286C29.9414 9.67768 36.8585 2.69824 45.4318 2.69824V10.4921Z" fill="#0E0E0E"/>
</g>
<defs>
<clipPath id="clip0_1941_4728">
<rect width="87.0968" height="31.1756" fill="white" transform="translate(1.80078 2.7002)"/>
</clipPath>
</defs>
</svg>
