<svg width="100" height="100" viewBox="0 0 100 100" fill="none" xmlns="http://www.w3.org/2000/svg">
<path fill-rule="evenodd" clip-rule="evenodd" d="M16.2505 65.1959L22.0755 66.0875C26.3755 66.7459 29.4463 70.5959 29.1297 74.9334L28.7005 80.8125C28.5755 82.525 29.5088 84.1375 31.0547 84.8834L35.363 86.9584C36.9088 87.7042 38.7547 87.425 40.0172 86.2625L44.3463 82.2625C47.538 79.3125 52.463 79.3125 55.6588 82.2625L59.988 86.2625C61.2505 87.4292 63.0922 87.7042 64.6422 86.9584L68.9588 84.8792C70.5005 84.1375 71.4297 82.5292 71.3047 80.8209L70.8755 74.9334C70.5588 70.5959 73.6297 66.7459 77.9297 66.0875L83.7547 65.1959C85.4505 64.9375 86.8172 63.6667 87.2005 61.9917L88.263 57.3334C88.6463 55.6584 87.9672 53.9209 86.5505 52.9542L81.688 49.625C78.1005 47.1667 77.0047 42.3667 79.1713 38.5959L82.1088 33.4875C82.963 32 82.8213 30.1375 81.7505 28.7959L78.7713 25.0584C77.7005 23.7167 75.9172 23.1625 74.2755 23.6667L68.6422 25.3917C64.4797 26.6667 60.0422 24.5292 58.4422 20.4834L56.2838 15.0125C55.6505 13.4125 54.1047 12.3625 52.3838 12.3667L47.6088 12.3792C45.888 12.3834 44.3463 13.4417 43.7213 15.0459L41.6172 20.4542C40.0338 24.525 35.5755 26.6792 31.4005 25.3959L25.5338 23.5959C23.888 23.0875 22.0963 23.6459 21.0255 24.9959L18.0672 28.7375C16.9963 30.0917 16.8672 31.9584 17.738 33.4459L20.7422 38.5667C22.9547 42.3417 21.8713 47.1875 18.263 49.6584L13.4588 52.95C12.0422 53.9209 11.363 55.6584 11.7463 57.3292L12.8088 61.9875C13.188 63.6667 14.5547 64.9375 16.2505 65.1959V65.1959Z" stroke="#0E0E0E" stroke-width="3" stroke-linecap="round" stroke-linejoin="round"></path>
<path d="M57.9839 42.0167C62.3922 46.425 62.3922 53.575 57.9839 57.9834C53.5755 62.3917 46.4255 62.3917 42.0172 57.9834C37.6089 53.575 37.6089 46.425 42.0172 42.0167C46.4255 37.6084 53.5755 37.6084 57.9839 42.0167" stroke="#0E0E0E" stroke-width="3" stroke-linecap="round" stroke-linejoin="round"></path>
</svg>
