<svg width="260" height="65" viewBox="0 0 260 65" fill="none" xmlns="http://www.w3.org/2000/svg">
<path d="M242.372 4.02197C242.244 6.42355 240.976 8.69171 239.961 10.0259C236.03 14.829 226.517 17.0972 222.459 13.6283C220.684 12.1606 220.81 9.49223 222.332 7.75776C224.995 4.68908 230.703 4.02197 234.635 3.75513C235.395 3.75513 241.23 3.75513 242.244 4.02197C242.499 4.02197 242.244 3.88855 242.372 4.02197ZM259.366 30.7061C256.45 30.1725 253.659 28.8384 251.884 27.2372C250.108 25.6361 248.459 23.7683 247.572 20.4327C246.43 16.1633 247.572 9.8925 248.459 5.4896C248.713 4.02197 249.221 2.55434 249.474 1.08671C248.079 0.819871 246.05 0.686452 244.654 0.553018C239.581 0.152762 234.381 0.019341 229.308 0.553018C222.332 1.22013 217.513 3.08802 214.088 7.09066C212.439 9.09197 211.172 12.4275 213.201 15.2293C214.595 17.0972 217.386 18.4314 220.303 19.0985C224.868 20.1659 229.688 19.3654 234.001 17.6309C235.268 17.0972 236.41 16.4301 237.679 15.8964C237.299 17.364 234.635 21.0998 233.621 22.3006C232.352 23.7683 231.084 25.2359 229.561 26.5701C228.421 27.504 227.279 28.438 225.884 29.1051C217.259 33.6414 212.439 25.5027 209.015 23.9017C205.21 22.1672 201.913 31.9069 198.742 26.5701C196.839 23.368 195.444 16.2967 190.879 19.7656C190.117 20.2993 189.357 20.9664 188.595 21.6335C187.581 22.5675 186.313 23.6348 185.299 24.5688C183.395 26.4367 178.957 30.1725 176.674 30.4393C175.406 30.5727 174.644 29.6388 174.517 28.438C174.391 27.2372 174.772 25.903 175.279 24.969C176.421 22.434 179.21 18.4314 181.113 16.1633C181.366 15.8964 182.001 15.2293 182.001 15.0959C181.746 14.829 180.732 14.1619 180.225 14.0285C177.688 12.8278 176.039 13.228 174.01 14.829C170.586 17.4975 165.766 22.8343 165.259 27.504C165.259 28.0377 165.386 28.438 165.006 28.7048C160.693 32.574 152.83 31.7735 151.435 24.1685C151.181 22.434 151.181 20.833 150.801 19.0985C149.406 12.6943 145.093 13.3614 140.908 16.2967C139.64 17.0972 136.596 19.6322 135.581 20.833C135.327 21.0998 135.201 21.3667 134.82 21.5001C135.327 20.4327 139.513 13.8951 140.147 12.8278C140.654 12.0272 141.795 10.5596 140.401 9.8925C139.259 9.22539 137.61 9.75908 136.723 10.2928C135.835 10.9599 135.327 12.0272 134.693 12.9612C133.552 14.829 132.41 16.8304 131.269 18.8317C130.254 20.833 129.113 22.9677 128.098 25.1025C127.718 25.903 127.591 25.7696 126.957 26.1698C125.435 27.1038 123.913 27.7709 122.264 28.3046C120.235 28.9717 116.937 29.9056 114.654 29.5054C111.23 28.8384 112.879 25.5027 114.02 23.7683C114.527 23.1011 115.923 21.5001 115.288 20.6996C113.259 18.1646 106.791 25.6361 100.323 27.6375C98.2933 28.3046 94.2347 29.2385 93.7273 26.5701C93.22 23.9017 95.7566 21.5001 96.898 20.5661C98.42 19.2319 100.449 18.1646 102.732 17.2306C111.61 13.4948 115.923 17.6309 117.444 17.6309C117.952 16.8304 118.079 15.3627 117.571 14.4288C117.191 13.7617 116.43 13.0946 115.415 12.6943C110.215 10.5596 101.718 13.228 97.0249 15.3627C93.3469 17.0972 90.8102 18.8317 87.8933 21.5001C85.4835 23.7683 82.3127 27.6375 82.5664 31.5067C77.3664 34.0417 72.1664 32.7075 69.5029 28.9717C65.9517 24.0351 67.981 19.3654 65.8249 14.1619C64.9371 12.0272 63.4151 10.2928 60.498 10.2928C56.0591 10.2928 50.8591 15.0959 47.5615 17.8977L44.6444 20.6996C44.3908 20.9664 44.3908 21.0998 44.0102 21.2333C43.7566 19.4988 43.1224 17.6309 42.742 15.8964L40.0786 5.35618C39.5713 3.48829 38.9371 2.02066 37.7957 1.08671C35.0055 -1.44829 31.5809 1.75381 29.298 3.62171C27.7762 4.95592 24.4786 8.69171 23.2102 10.4262L20.2931 14.0285C17.5029 17.4975 14.7127 21.6335 12.0493 25.2359C11.1615 26.4367 10.2737 27.7709 9.38587 29.1051C7.3566 31.9069 3.80538 36.5767 1.26879 38.8448C1.01513 39.1117 0.634642 39.3785 0.507812 39.6455C3.0444 40.0456 7.48342 39.5119 9.76635 38.7114C12.9371 37.644 14.2053 36.4433 15.8542 34.3085C17.3762 32.3072 18.6444 30.039 20.0395 27.9043C22.7029 23.6348 25.2395 18.9651 28.1566 14.829C28.9176 13.7617 29.6786 12.8278 30.5664 11.8938C31.0737 11.3601 32.8493 9.49223 33.7371 10.8264C34.7517 12.2941 35.1322 17.7643 35.2591 20.0325C35.5127 23.2346 35.6395 26.5701 36.1469 29.7722C36.5273 32.4406 37.542 37.1104 40.4591 34.3085C40.9664 33.9083 41.3469 33.3746 41.7273 32.9743C42.1078 32.4406 42.6151 32.0404 42.9957 31.6401C43.3762 31.1064 43.8835 30.7061 44.2639 30.3059C46.2931 27.9043 48.4493 25.7696 50.8591 23.7683C52.6346 22.434 56.0591 20.2993 57.9615 22.8343C61.1322 26.8369 61.1322 32.0404 66.9664 34.9756C71.4055 37.2438 76.9859 36.8435 81.6786 34.7088C82.0591 34.4419 82.9469 33.9082 83.3273 33.7748C83.7078 34.3085 83.8347 34.4419 84.4688 34.8422C87.8933 36.9769 93.9811 35.3759 97.4055 34.1751C99.8151 33.3746 101.464 32.3072 103.24 31.1064C104.381 30.3059 107.298 28.3046 108.44 27.3706C108.44 27.7709 108.186 28.7048 108.186 29.1051C108.059 30.8396 108.059 33.1077 109.327 34.1751C111.737 36.1764 119.093 32.3072 121.376 30.973L126.576 28.0377C126.196 29.1051 125.562 30.3059 125.181 31.3732C122.137 38.8448 119.474 49.6519 118.332 57.5238C118.205 58.7246 117.444 62.7272 118.079 63.928C118.332 64.3282 118.84 64.8619 119.474 64.7285C121.376 64.5951 122.01 60.459 122.518 58.4577C124.674 50.0522 127.718 37.644 132.537 30.973C134.313 28.5714 138.498 22.434 143.064 23.1011C144.206 23.2346 144.966 24.4354 145.346 25.3693C147.123 28.5714 148.01 31.5067 151.561 33.1077C155.493 34.9756 160.566 34.0417 164.117 31.5067C164.499 31.2398 165.132 30.7061 165.513 30.5727C166.146 31.2398 166.146 32.1738 167.795 33.2411C168.684 33.9083 169.952 34.3085 171.221 34.5754C178.323 35.9096 183.775 31.9069 188.595 27.3706C189.23 26.8369 189.737 26.0364 190.372 25.5027C190.499 25.6361 191.259 27.6375 192.021 28.7048C195.699 34.1751 200.391 31.9069 204.957 29.5054C208.001 27.9043 208.888 28.8384 211.552 30.5727C212.566 31.1064 213.581 31.6401 214.723 32.1738C219.923 34.3085 225.377 33.2411 229.942 30.973C231.972 29.9056 234.128 28.5714 235.777 27.2372C236.791 26.3034 238.566 24.969 239.454 23.7683L240.468 22.434C240.595 22.7009 241.357 25.3693 241.61 25.903C242.752 28.9717 244.654 32.3072 247.064 34.0417C249.346 35.7761 250.995 35.6427 253.786 34.3085C255.308 33.6414 256.703 32.8409 258.099 31.9069C258.352 31.7735 258.479 31.6401 258.732 31.3732C258.859 31.2398 258.986 31.2398 259.113 31.1064L259.366 30.7061ZM74.5762 17.8977C74.4493 15.763 75.9713 13.8951 77.8737 13.7617C80.0298 13.6283 81.6786 15.3627 81.8055 17.364C81.9322 19.4988 80.4102 21.2333 78.5078 21.5001C76.4786 21.6335 74.8298 19.899 74.5762 17.8977ZM77.62 12.9612C75.3371 13.3614 73.5615 15.4961 73.942 18.298C74.3226 20.5661 76.3517 22.5675 79.0151 22.0338C81.1713 21.6335 83.0737 19.4988 82.6933 16.6969C82.1859 14.5622 80.1566 12.5609 77.62 12.9612ZM77.2395 15.763C78.0006 15.763 79.2688 15.4961 79.2688 16.5635C79.2688 17.4975 78.0006 17.2306 77.2395 17.2306V15.763ZM76.098 20.1659H77.2395V18.0311H78.381L79.142 20.1659H80.2835L79.3957 17.7643C80.7908 17.2306 80.4102 15.6296 79.7762 15.2293C79.0151 14.6956 77.1127 14.829 76.098 14.829V20.1659Z" fill="#E31E24"></path>
</svg>
