<svg width="120" height="43" viewBox="0 0 120 43" fill="none" xmlns="http://www.w3.org/2000/svg">
<g clip-path="url('#clip0_2107_11261')">
<path d="M0 6.78906V41.8763H13.4228V26.9555L0 6.78906Z" fill="#0E0E0E"></path>
<path d="M6.1208 10.7369H22.3624C24.6175 10.7369 26.443 12.5409 26.443 14.7637C26.443 16.9866 24.6175 18.7906 22.3624 18.7906H11.4792L26.8456 41.8778H38.9208L28.9557 27.2255C33.5678 25.0993 36.7732 20.4389 36.7732 15.0322C36.7732 7.61743 30.7651 1.60938 23.3503 1.60938H0V1.94226L6.1208 10.7369Z" fill="#0E0E0E"></path>
<path d="M101.211 33.1992L107.112 41.8757H119.998L107.654 23.7227L101.211 33.1992Z" fill="#0E0E0E"></path>
<path d="M84.0461 34.7578L79.2031 41.8773H88.9642L84.0461 34.7578Z" fill="#0E0E0E"></path>
<path d="M85.6562 32.3798L92.1475 41.7705L92.5824 41.1315L92.5717 41.1208L119.444 1.60938H106.569L106.059 2.35568L106.07 2.36642L85.6562 32.3798Z" fill="#0E0E0E"></path>
<path d="M97.9762 9.49662L92.6125 1.60938H79.7266L91.5333 18.9731L97.9762 9.49662Z" fill="#0E0E0E"></path>
<path d="M60.414 32.2148C54.4919 32.2148 49.6758 27.3987 49.6758 21.4765C49.6758 15.5544 54.4919 10.7383 60.414 10.7383C66.3362 10.7383 71.1523 15.5544 71.1523 21.4765C71.1523 24.6873 69.7294 27.3826 67.4905 29.5302H80.3227C81.3321 26.8456 81.8905 24.3275 81.8905 21.4765C81.8905 9.61611 72.2744 0 60.414 0C48.5536 0 38.9375 9.61611 38.9375 21.4765C38.9375 33.3369 48.5536 42.953 60.414 42.953C68.3603 42.953 75.2972 38.6577 79.0127 32.2148H60.414Z" fill="#0E0E0E"></path>
<path d="M60.1392 10.7383C54.2331 10.7383 49.5351 15.5544 49.5351 21.4765C49.5351 27.3987 54.4855 32.2148 60.4076 32.2148H82.421L89.9378 42.953H60.4076C48.5472 42.953 38.7969 33.3369 38.7969 21.4765C38.7969 9.61611 48.3271 0 60.1392 0V10.7383Z" fill="#0E0E0E"></path>
</g>
<defs>
<clipPath id="clip0_2107_11261">
<rect width="120" height="42.953" fill="white"></rect>
</clipPath>
</defs>
</svg>
